<svg width="64" height="64" viewBox="0 0 64 64" fill="none" xmlns="http://www.w3.org/2000/svg">
<rect width="64" height="64" fill="#E5E5E5"/>
<g id="Desktop - 1" clip-path="url(#clip0_0_1)">
<rect width="1440" height="4082" transform="translate(-590 -1742)" fill="white"/>
<g id="Rectangle 504" filter="url(#filter0_f_0_1)">
<rect x="-337" y="-246" width="255" height="257" fill="#F3B562"/>
</g>
<g id="Rectangle 505" filter="url(#filter1_f_0_1)">
<rect x="342" y="-246" width="255" height="257" fill="#D16035"/>
</g>
<g id="Rectangle 506" filter="url(#filter2_f_0_1)">
<rect x="-337" y="239" width="255" height="257" fill="#EFDCC6"/>
</g>
<g id="Rectangle 507" filter="url(#filter3_f_0_1)">
<rect x="342" y="239" width="255" height="257" fill="#627964"/>
</g>
<g id="Group 2588">
<g id="Group 2586">
<rect id="Rectangle 495" x="-50" y="-78" width="360" height="338" rx="8" fill="#647B64"/>
<g id="vuesax/bold/iost-(iost)">
<g id="vuesax/bold/iost-(iost)_2">
<g id="iost-(iost)">
<path id="Vector" d="M52.0267 17.12L34.6934 6.93336C33.0134 5.94669 30.9599 5.94669 29.2799 6.93336L11.9466 17.12C10.3199 18.08 9.30664 19.84 9.30664 21.7067V42.2667C9.30664 44.16 10.3199 45.8934 11.9466 46.8534L29.2799 57.04C30.9599 58.0267 33.0134 58.0267 34.6934 57.04L52.0267 46.8534C53.6534 45.8934 54.6667 44.1334 54.6667 42.2667V21.7067C54.6667 19.84 53.6534 18.08 52.0267 17.12ZM46.3734 41.7067L33.04 49.7067C32.72 49.8933 32.3733 50 32 50C31.6267 50 31.28 49.8933 30.96 49.7067L17.6266 41.7067C16.6666 41.1467 16.3733 39.92 16.9333 38.96C17.4933 38 18.72 37.7067 19.68 38.2667L31.9733 45.6533L41.4134 39.9734L36.4533 36.9867L34.7201 38.72C34.3201 39.12 33.8133 39.3067 33.3066 39.3067C32.8 39.3067 32.2934 39.12 31.8934 38.72C31.1201 37.9467 31.1201 36.6667 31.8934 35.8934L32.9067 34.88L28.1066 32L26.7201 33.3867C26.3201 33.7867 25.8133 33.9734 25.3066 33.9734C24.8 33.9734 24.2934 33.7867 23.8934 33.3867C23.1201 32.6134 23.1201 31.3334 23.8934 30.56L24.5866 29.8667L17.6266 25.68C17.0133 25.3067 16.6667 24.6667 16.6667 23.9734C16.6667 23.28 17.04 22.6134 17.6266 22.2667L30.96 14.2667C31.6 13.8934 32.4 13.8934 33.0133 14.2667L46.3467 22.2667C47.3067 22.8267 47.6 24.0534 47.04 25.0134C46.48 25.9467 45.2533 26.2667 44.2933 25.7067L32 18.32L22.5601 24L27.52 26.9867L29.2533 25.2533C30.0266 24.48 31.3067 24.48 32.0801 25.2533C32.8534 26.0267 32.8534 27.3067 32.0801 28.08L31.0667 29.0934L35.8667 31.9734L37.2533 30.5867C38.0266 29.8133 39.3067 29.8133 40.0801 30.5867C40.8534 31.36 40.8534 32.64 40.0801 33.4133L39.3867 34.1067L46.3467 38.2933C46.96 38.6667 47.3066 39.3067 47.3066 40C47.3066 40.6933 46.96 41.36 46.3734 41.7067Z" fill="white"/>
</g>
</g>
</g>
</g>
</g>
</g>
<defs>
<filter id="filter0_f_0_1" x="-1937" y="-1846" width="3455" height="3457" filterUnits="userSpaceOnUse" color-interpolation-filters="sRGB">
<feFlood flood-opacity="0" result="BackgroundImageFix"/>
<feBlend mode="normal" in="SourceGraphic" in2="BackgroundImageFix" result="shape"/>
<feGaussianBlur stdDeviation="800" result="effect1_foregroundBlur_0_1"/>
</filter>
<filter id="filter1_f_0_1" x="-1258" y="-1846" width="3455" height="3457" filterUnits="userSpaceOnUse" color-interpolation-filters="sRGB">
<feFlood flood-opacity="0" result="BackgroundImageFix"/>
<feBlend mode="normal" in="SourceGraphic" in2="BackgroundImageFix" result="shape"/>
<feGaussianBlur stdDeviation="800" result="effect1_foregroundBlur_0_1"/>
</filter>
<filter id="filter2_f_0_1" x="-1937" y="-1361" width="3455" height="3457" filterUnits="userSpaceOnUse" color-interpolation-filters="sRGB">
<feFlood flood-opacity="0" result="BackgroundImageFix"/>
<feBlend mode="normal" in="SourceGraphic" in2="BackgroundImageFix" result="shape"/>
<feGaussianBlur stdDeviation="800" result="effect1_foregroundBlur_0_1"/>
</filter>
<filter id="filter3_f_0_1" x="-1258" y="-1361" width="3455" height="3457" filterUnits="userSpaceOnUse" color-interpolation-filters="sRGB">
<feFlood flood-opacity="0" result="BackgroundImageFix"/>
<feBlend mode="normal" in="SourceGraphic" in2="BackgroundImageFix" result="shape"/>
<feGaussianBlur stdDeviation="800" result="effect1_foregroundBlur_0_1"/>
</filter>
<clipPath id="clip0_0_1">
<rect width="1440" height="4082" fill="white" transform="translate(-590 -1742)"/>
</clipPath>
</defs>
</svg>
